<?xml version="1.0" standalone="no"?>
<!DOCTYPE svg PUBLIC "-//W3C//DTD SVG 20010904//EN"
 "http://www.w3.org/TR/2001/REC-SVG-20010904/DTD/svg10.dtd">
<svg version="1.0" xmlns="http://www.w3.org/2000/svg"
 width="512.000000pt" height="512.000000pt" viewBox="0 0 512.000000 512.000000"
 preserveAspectRatio="xMidYMid meet">
<metadata>
Created by potrace 1.14, written by Peter Selinger 2001-2017
</metadata>
<g transform="translate(0.000000,512.000000) scale(0.100000,-0.100000)"
fill="#000000" stroke="none">
<path d="M2170 4520 c-487 -4 -912 -11 -946 -14 -76 -6 -128 -36 -154 -86 -15
-30 -20 -67 -24 -201 -8 -245 -15 -987 -22 -2314 l-5 -1190 28 -39 c55 -77 52
-76 313 -82 129 -3 763 -1 1408 4 l1172 10 45 27 c29 16 52 40 66 67 20 39 21
60 29 737 5 383 11 1205 15 1826 l6 1130 -30 47 c-53 82 -32 78 -554 83 -254
2 -860 0 -1347 -5z m737 -1937 c-6 -749 -9 -889 -21 -901 -17 -18 -314 -34
-535 -30 l-144 3 2 600 c0 330 4 730 8 888 6 279 7 288 27 300 20 11 238 21
540 25 l129 2 -6 -887z"/>
</g>
</svg>
